# xmcd CD database file
#
# Track frame offsets:
#	150
#	5830
#	34072
#	51507
#	65711
#	86188
#	105876
#	135980
#	152042
#	165777
#	185342
#	208861
#	217180
#
# Disc length: 2966 seconds
#
# Revision: 0
# Processed by: cddbd v1.5.1PL0 Copyright (c) Steve Scherf et al.
# Submitted via: CDex 1.50
#
DISCID=b40b940d
DTITLE=Chelsea - chocolate's revenge
DYEAR=2000
DGENRE=Blues
TTITLE0=now go home
TTITLE1=I'm changing
TTITLE2=closer closer
TTITLE3=takes a fire to break the ice
TTITLE4=mr holy ghost
TTITLE5=the heart don't lie
TTITLE6=strange rain
TTITLE7=the sun and the moon
TTITLE8=sunglasses at midnight
TTITLE9=funny
TTITLE10=black bullets
TTITLE11=fais tomber la monnaie
TTITLE12=now go home (return)
EXTD=YEAR: 2000
EXTT0=
EXTT1=
EXTT2=
EXTT3=
EXTT4=
EXTT5=
EXTT6=
EXTT7=
EXTT8=
EXTT9=
EXTT10=
EXTT11=
EXTT12=
PLAYORDER=
